<svg width="1200" height="430" viewBox="0 0 1200 430" xmlns="http://www.w3.org/2000/svg">
<rect width="1200" height="430" rx="28" fill="#0b0b0b" stroke="#252525" stroke-width="2"/>
<rect width="1200" height="62" rx="28" fill="#111111"/>
<rect y="38" width="1200" height="24" fill="#111111"/>

<circle cx="30" cy="31" r="7" fill="#ff5f56"/>
<circle cx="54" cy="31" r="7" fill="#ffbd2e"/>
<circle cx="78" cy="31" r="7" fill="#27c93f"/>

<text x="600" y="38" text-anchor="middle" fill="#777777" font-family="monospace" font-size="15">~/ the numbers</text>

<text x="32" y="103" fill="#9cff00" font-family="monospace" font-size="15">usman@github:~$ github --stats</text>
<text x="32" y="143" fill="#ffffff" font-family="Arial, sans-serif" font-size="28" font-weight="700">The Numbers</text>
<text x="32" y="168" fill="#777777" font-family="monospace" font-size="11">REAL GITHUB DATA · AUTO UPDATED</text>

<rect x="32" y="195" width="245" height="92" rx="14" fill="#111111" stroke="#252525"/>
<text x="55" y="223" fill="#4285f4" font-family="Arial, sans-serif" font-size="13" font-weight="700">REPOSITORIES</text>
<text x="55" y="263" fill="#ffffff" font-family="Arial, sans-serif" font-size="30" font-weight="700">9</text>

<rect x="293" y="195" width="245" height="92" rx="14" fill="#111111" stroke="#252525"/>
<text x="316" y="223" fill="#9cff00" font-family="Arial, sans-serif" font-size="13" font-weight="700">CONTRIBUTIONS</text>
<text x="316" y="263" fill="#ffffff" font-family="Arial, sans-serif" font-size="30" font-weight="700">385</text>

<rect x="554" y="195" width="245" height="92" rx="14" fill="#111111" stroke="#252525"/>
<text x="577" y="223" fill="#ff007f" font-family="Arial, sans-serif" font-size="13" font-weight="700">FOLLOWERS</text>
<text x="577" y="263" fill="#ffffff" font-family="Arial, sans-serif" font-size="30" font-weight="700">0</text>

<rect x="815" y="195" width="245" height="92" rx="14" fill="#111111" stroke="#252525"/>
<text x="838" y="223" fill="#f7df1e" font-family="Arial, sans-serif" font-size="13" font-weight="700">FOLLOWING</text>
<text x="838" y="263" fill="#ffffff" font-family="Arial, sans-serif" font-size="30" font-weight="700">1</text>

<text x="32" y="328" fill="#ffffff" font-family="Arial, sans-serif" font-size="14" font-weight="700">PRIMARY LANGUAGES · OWN REPOSITORIES</text>

          <text x="32" y="359" fill="#777777" font-family="monospace" font-size="9">JAVASCRIPT</text>
<rect x="175" y="350" width="300" height="8" rx="4" fill="#161616"/>
<rect x="175" y="350" width="300" height="8" rx="4" fill="#5382a1"/>
<text x="487" y="359" fill="#777777" font-family="monospace" font-size="9">3</text>

          <text x="32" y="374" fill="#777777" font-family="monospace" font-size="9">CSS</text>
<rect x="175" y="365" width="300" height="8" rx="4" fill="#161616"/>
<rect x="175" y="365" width="200" height="8" rx="4" fill="#e34f26"/>
<text x="487" y="374" fill="#777777" font-family="monospace" font-size="9">2</text>

          <text x="32" y="389" fill="#777777" font-family="monospace" font-size="9">JAVA</text>
<rect x="175" y="380" width="300" height="8" rx="4" fill="#161616"/>
<rect x="175" y="380" width="200" height="8" rx="4" fill="#1572b6"/>
<text x="487" y="389" fill="#777777" font-family="monospace" font-size="9">2</text>

          <text x="32" y="404" fill="#777777" font-family="monospace" font-size="9">PYTHON</text>
<rect x="175" y="395" width="300" height="8" rx="4" fill="#161616"/>
<rect x="175" y="395" width="100" height="8" rx="4" fill="#f7df1e"/>
<text x="487" y="404" fill="#777777" font-family="monospace" font-size="9">1</text>

          <text x="32" y="419" fill="#777777" font-family="monospace" font-size="9">—</text>
<rect x="175" y="410" width="300" height="8" rx="4" fill="#161616"/>
<rect x="175" y="410" width="0" height="8" rx="4" fill="#3776ab"/>
<text x="487" y="419" fill="#777777" font-family="monospace" font-size="9">0</text>

<text x="1150" y="408" text-anchor="end" fill="#555555" font-family="monospace" font-size="10">sourced directly from GitHub</text>
</svg>
